<svg width="13" height="20" viewBox="0 0 13 20" fill="none" xmlns="http://www.w3.org/2000/svg">
<path id="Vector" d="M7.625 7.74984H12.6875L12.125 9.9165H7.625V19.6665H5.375V9.9165H0.875V7.74984H5.375V5.72184C5.375 3.79025 5.58425 3.08934 5.97575 2.383C6.35939 1.68513 6.95203 1.11443 7.67675 0.745004C8.41025 0.368004 9.13813 0.166504 11.144 0.166504C11.7313 0.166504 12.2465 0.220671 12.6875 0.329004V2.33317H11.144C9.6545 2.33317 9.20113 2.41767 8.73875 2.656C8.39675 2.8315 8.1425 3.07634 7.96025 3.40567C7.71275 3.85092 7.625 4.2875 7.625 5.72184V7.74984Z" fill="#CCD2E9"/>
</svg>
