<svg width="23" height="22" viewBox="0 0 23 22" fill="none" xmlns="http://www.w3.org/2000/svg">
<path d="M11.5 7.74984C10.6049 7.74984 9.74645 8.09225 9.11351 8.70174C8.48058 9.31123 8.125 10.1379 8.125 10.9998C8.125 11.8618 8.48058 12.6884 9.11351 13.2979C9.74645 13.9074 10.6049 14.2498 11.5 14.2498C12.3951 14.2498 13.2536 13.9074 13.8865 13.2979C14.5194 12.6884 14.875 11.8618 14.875 10.9998C14.875 10.1379 14.5194 9.31123 13.8865 8.70174C13.2536 8.09225 12.3951 7.74984 11.5 7.74984ZM11.5 5.58317C12.9918 5.58317 14.4226 6.15385 15.4775 7.16967C16.5324 8.1855 17.125 9.56325 17.125 10.9998C17.125 12.4364 16.5324 13.8142 15.4775 14.83C14.4226 15.8458 12.9918 16.4165 11.5 16.4165C10.0082 16.4165 8.57742 15.8458 7.52252 14.83C6.46763 13.8142 5.875 12.4364 5.875 10.9998C5.875 9.56325 6.46763 8.1855 7.52252 7.16967C8.57742 6.15385 10.0082 5.58317 11.5 5.58317ZM18.8125 5.31234C18.8125 5.67148 18.6643 6.01592 18.4006 6.26988C18.1369 6.52383 17.7792 6.6665 17.4062 6.6665C17.0333 6.6665 16.6756 6.52383 16.4119 6.26988C16.1482 6.01592 16 5.67148 16 5.31234C16 4.95319 16.1482 4.60875 16.4119 4.3548C16.6756 4.10084 17.0333 3.95817 17.4062 3.95817C17.7792 3.95817 18.1369 4.10084 18.4006 4.3548C18.6643 4.60875 18.8125 4.95319 18.8125 5.31234ZM11.5 2.33317C8.71675 2.33317 8.26225 2.34075 6.96738 2.396C6.08538 2.43609 5.49362 2.54984 4.94462 2.75567C4.45637 2.93767 4.10425 3.15542 3.72962 3.51725C3.37751 3.84485 3.10677 4.2448 2.93762 4.68725C2.72388 5.21809 2.60575 5.78684 2.56525 6.63509C2.50675 7.83109 2.5 8.24925 2.5 10.9998C2.5 13.68 2.50788 14.1177 2.56525 15.3646C2.60688 16.2128 2.725 16.7838 2.93762 17.3113C3.12888 17.7826 3.35388 18.1217 3.72738 18.4813C4.1065 18.8453 4.45862 19.0631 4.94238 19.2429C5.49813 19.4498 6.08988 19.5647 6.96738 19.6037C8.20938 19.66 8.64363 19.6665 11.5 19.6665C14.2832 19.6665 14.7377 19.6589 16.0326 19.6037C16.9124 19.5636 17.5053 19.4498 18.0543 19.2451C18.5414 19.062 18.8958 18.8443 19.2693 18.4846C19.6484 18.1195 19.8745 17.7804 20.0613 17.3146C20.275 16.7805 20.3942 16.2096 20.4347 15.3646C20.4932 14.1686 20.5 13.7504 20.5 10.9998C20.5 8.31967 20.4921 7.882 20.4347 6.63509C20.3931 5.78792 20.275 5.21592 20.0613 4.68725C19.8917 4.24526 19.6215 3.84546 19.2704 3.51725C18.9303 3.178 18.5149 2.91727 18.0554 2.75459C17.5041 2.54875 16.9124 2.435 16.0326 2.396C14.7906 2.33967 14.3564 2.33317 11.5 2.33317ZM11.5 0.166504C14.5566 0.166504 14.938 0.177337 16.1372 0.231504C17.3354 0.285671 18.151 0.466587 18.8687 0.735254C19.6112 1.01042 20.2367 1.38309 20.8623 1.98434C21.4343 2.52589 21.8769 3.18097 22.1594 3.904C22.4373 4.59409 22.6263 5.38059 22.6825 6.53434C22.7354 7.68917 22.75 8.05642 22.75 10.9998C22.75 13.9433 22.7388 14.3105 22.6825 15.4653C22.6263 16.6191 22.4373 17.4045 22.1594 18.0957C21.8778 18.8191 21.435 19.4743 20.8623 20.0153C20.2997 20.566 19.6195 20.9922 18.8687 21.2644C18.1521 21.532 17.3354 21.714 16.1372 21.7682C14.938 21.8191 14.5566 21.8332 11.5 21.8332C8.44337 21.8332 8.062 21.8223 6.86275 21.7682C5.66462 21.714 4.849 21.532 4.13125 21.2644C3.38012 20.993 2.69972 20.5667 2.13775 20.0153C1.56558 19.4739 1.12292 18.8188 0.840625 18.0957C0.561625 17.4056 0.37375 16.6191 0.3175 15.4653C0.264625 14.3105 0.25 13.9433 0.25 10.9998C0.25 8.05642 0.26125 7.68917 0.3175 6.53434C0.37375 5.3795 0.561625 4.59517 0.840625 3.904C1.12214 3.18053 1.5649 2.52527 2.13775 1.98434C2.69988 1.43317 3.38023 1.00688 4.13125 0.735254C4.849 0.466587 5.6635 0.285671 6.86275 0.231504C8.062 0.180587 8.44337 0.166504 11.5 0.166504Z" fill="#CCD2E9"/>
</svg>
