<svg width="21" height="20" viewBox="0 0 21 20" fill="none" xmlns="http://www.w3.org/2000/svg">
<path d="M10.5 7.34567C11.5316 6.33059 12.8749 5.6665 14.4375 5.6665C16.0785 5.6665 17.6523 6.29425 18.8127 7.41166C19.9731 8.52906 20.625 10.0446 20.625 11.6248V19.7498H18.375V11.6248C18.375 10.6192 17.9602 9.6548 17.2217 8.94372C16.4833 8.23265 15.4818 7.83317 14.4375 7.83317C13.3932 7.83317 12.3917 8.23265 11.6533 8.94372C10.9148 9.6548 10.5 10.6192 10.5 11.6248V19.7498H8.25V6.20817H10.5V7.34567ZM2.625 4.0415C2.17745 4.0415 1.74822 3.8703 1.43176 3.56555C1.11529 3.26081 0.9375 2.84748 0.9375 2.4165C0.9375 1.98553 1.11529 1.5722 1.43176 1.26746C1.74822 0.962709 2.17745 0.791504 2.625 0.791504C3.07255 0.791504 3.50178 0.962709 3.81824 1.26746C4.13471 1.5722 4.3125 1.98553 4.3125 2.4165C4.3125 2.84748 4.13471 3.26081 3.81824 3.56555C3.50178 3.8703 3.07255 4.0415 2.625 4.0415ZM1.5 6.20817H3.75V19.7498H1.5V6.20817Z" fill="#CCD2E9"/>
</svg>
