<svg width="24" height="19" viewBox="0 0 24 19" fill="none" xmlns="http://www.w3.org/2000/svg">
<path d="M16.2125 3.01254C15.3574 3.01241 14.5365 3.33551 13.9264 3.91232C13.3162 4.48914 12.9656 5.27356 12.95 6.09679L12.9185 7.80304C12.9166 7.89465 12.8947 7.98485 12.8541 8.06773C12.8135 8.1506 12.7552 8.22427 12.6829 8.28391C12.6107 8.34355 12.5262 8.38781 12.4349 8.41378C12.3437 8.43976 12.2478 8.44686 12.1535 8.43463L10.3973 8.20496C8.08659 7.90163 5.87259 6.87679 3.74859 5.17271C3.07584 8.75854 4.38984 11.2426 7.55446 13.159L9.51984 14.3485C9.61322 14.4051 9.6908 14.4827 9.74579 14.5748C9.80078 14.6669 9.83151 14.7705 9.83528 14.8766C9.83905 14.9828 9.81576 15.0882 9.76744 15.1837C9.71912 15.2791 9.64724 15.3618 9.55809 15.4243L7.76709 16.6842C8.83246 16.7481 9.84384 16.7026 10.6831 16.5423C15.9908 15.5218 19.52 11.676 19.52 5.33196C19.52 4.81413 18.3815 3.01254 16.2125 3.01254ZM10.7 6.05671C10.7196 5.01243 11.0587 3.99693 11.6748 3.13737C12.291 2.2778 13.1567 1.61236 14.1637 1.22436C15.1707 0.836358 16.2742 0.743045 17.336 0.956102C18.3979 1.16916 19.3708 1.67912 20.1331 2.42213C20.933 2.41671 21.6136 2.61171 23.1357 1.72338C22.7588 3.50004 22.5732 4.27138 21.77 5.33196C21.77 13.6108 16.4858 17.6365 11.1241 18.6667C7.44759 19.373 2.10159 18.2128 0.569336 16.6723C1.35009 16.6138 4.52259 16.2855 6.35634 14.9931C4.80496 14.0084 -1.37016 10.5092 2.68771 1.10154C4.59234 3.24329 6.52396 4.70146 8.48146 5.47496C9.78421 5.98954 10.1037 5.97871 10.7011 6.05779L10.7 6.05671Z" fill="#CCD2E9"/>
</svg>
